<?xml version="1.0" standalone="no"?>
<!DOCTYPE svg PUBLIC "-//W3C//DTD SVG 20010904//EN"
 "http://www.w3.org/TR/2001/REC-SVG-20010904/DTD/svg10.dtd">
<svg version="1.0" xmlns="http://www.w3.org/2000/svg"
 width="250.000000pt" height="125.000000pt" viewBox="0 0 250.000000 125.000000"
 preserveAspectRatio="xMidYMid meet">

<g transform="translate(0.000000,125.000000) scale(0.100000,-0.100000)"
fill="#fff" stroke="none">
<path d="M218 1033 c-16 -2 -28 -5 -29 -6 -3 -14 -37 -812 -34 -817 3 -4 28
-10 57 -14 29 -4 68 -9 87 -13 l34 -6 -6 192 c-5 145 -3 193 6 196 7 2 46 6
88 9 l76 7 6 -83 c4 -46 10 -129 13 -186 l7 -103 81 3 81 3 -3 60 c-2 33 -12
125 -22 205 -17 141 -17 151 1 330 10 102 18 193 19 203 0 14 -9 17 -60 17
l-60 0 0 -145 0 -145 -48 0 c-27 0 -83 3 -124 6 l-76 7 -6 116 c-4 64 -9 128
-12 144 -6 28 -12 30 -76 20z m275 -339 c65 -5 78 -9 75 -22 -3 -18 -30 -24
-170 -37 l-78 -7 0 41 0 42 48 -5 c26 -3 82 -8 125 -12z"/>
<path d="M1671 752 c-76 -378 -106 -464 -198 -563 -38 -40 -41 -48 -29 -64 12
-16 17 -13 72 41 71 70 122 164 159 289 14 49 27 91 30 93 5 5 6 5 125 -142
47 -58 87 -105 90 -105 3 0 59 91 125 204 66 113 124 205 128 205 5 0 6 -37 3
-82 -3 -46 -8 -165 -12 -265 -6 -174 -5 -183 12 -182 11 0 64 6 119 12 l100
13 -3 34 c-1 19 -18 195 -37 390 -19 195 -35 363 -35 373 0 14 -9 17 -55 17
l-55 0 -112 -224 c-62 -124 -115 -223 -119 -220 -4 2 -60 103 -124 224 -64
121 -119 220 -123 220 -4 0 -31 -120 -61 -268z m175 -134 c72 -123 81 -144 71
-165 -5 -12 -14 -23 -18 -23 -5 0 -45 48 -90 108 -80 106 -81 107 -75 155 8
55 16 80 24 72 4 -3 43 -69 88 -147z m450 -100 c-16 -174 -31 -220 -70 -205
-12 5 -11 16 5 68 11 35 25 96 31 136 8 54 14 73 26 73 12 0 14 -11 8 -72z"/>
<path d="M1063 1000 c-221 -46 -331 -348 -214 -589 53 -110 148 -180 256 -189
136 -10 243 56 310 192 80 160 60 347 -51 482 -64 79 -199 125 -301 104z m175
-180 c17 -11 32 -23 32 -28 0 -4 -11 -24 -25 -44 -14 -20 -25 -41 -25 -47 0
-22 26 -15 53 16 16 18 32 33 36 33 10 0 41 -67 41 -90 0 -14 -9 -21 -35 -26
-50 -9 -46 -34 5 -34 l40 0 0 -47 c0 -71 -10 -81 -53 -54 -52 32 -62 7 -14
-33 21 -17 37 -35 37 -40 0 -13 -43 -76 -52 -76 -3 0 -18 20 -32 45 -18 30
-31 42 -41 39 -19 -8 -19 -6 10 -64 14 -27 25 -52 25 -55 0 -9 -82 -45 -102
-45 -15 0 -18 9 -18 49 0 33 -5 51 -14 54 -17 7 -26 -13 -26 -59 0 -19 -3 -34
-6 -34 -12 0 -51 24 -77 48 l-27 26 35 36 c30 30 33 39 22 48 -11 9 -20 5 -42
-18 -16 -17 -32 -30 -36 -30 -9 0 -29 57 -29 81 0 15 8 19 41 19 33 0 40 3 37
18 -2 12 -15 18 -46 20 -39 3 -42 5 -42 33 0 36 20 119 28 119 4 0 22 -16 42
-35 32 -31 38 -34 49 -21 11 13 7 22 -23 58 -20 23 -36 47 -36 54 0 16 88 94
106 94 7 0 21 -23 31 -51 16 -47 36 -69 49 -56 3 3 -1 30 -9 61 l-15 56 36 0
c21 0 52 -9 70 -20z"/>
<path d="M395 895 c-14 -13 -25 -31 -25 -40 0 -23 37 -55 63 -55 53 0 77 75
35 104 -31 22 -45 20 -73 -9z"/>
</g>
</svg>
